<svg width="150" height="32" viewBox="0 0 150 32" fill="none" xmlns="http://www.w3.org/2000/svg">
<path d="M10.7535 31.7032C9.91354 31.7032 9.26322 31.2561 8.80257 30.3619L0.185806 12.1935C-0.0309677 11.7329 -0.0580645 11.2858 0.104516 10.8522C0.294193 10.3916 0.646451 10.0393 1.16129 9.79547C1.62193 9.5516 2.08258 9.51095 2.54322 9.67353C3.03097 9.83612 3.39677 10.1477 3.64064 10.6084L10.7129 25.8503L17.7039 10.6084C17.9477 10.1477 18.3135 9.83612 18.8013 9.67353C19.3161 9.51095 19.831 9.5516 20.3458 9.79547C20.8335 10.0122 21.1587 10.351 21.3213 10.8116C21.4839 11.2722 21.4568 11.7329 21.24 12.1935L12.6232 30.3619C12.2168 31.2561 11.5935 31.7032 10.7535 31.7032Z" fill="#4DA747"/>
<path d="M27.981 31.7438C27.3849 31.7438 26.8836 31.5542 26.4772 31.1748C26.0978 30.7684 25.9081 30.2671 25.9081 29.6709V11.5839C25.9081 10.9606 26.0978 10.4593 26.4772 10.08C26.8836 9.70063 27.3849 9.51095 27.981 9.51095C28.6043 9.51095 29.1056 9.70063 29.4849 10.08C29.8643 10.4593 30.0539 10.9606 30.0539 11.5839V29.6709C30.0539 30.2671 29.8643 30.7684 29.4849 31.1748C29.1056 31.5542 28.6043 31.7438 27.981 31.7438ZM27.981 5.89354C27.2494 5.89354 26.6127 5.63612 26.0707 5.12128C25.5559 4.57935 25.2985 3.94257 25.2985 3.21096C25.2985 2.47935 25.5559 1.85612 26.0707 1.34128C26.6127 0.799349 27.2494 0.528381 27.981 0.528381C28.7127 0.528381 29.3359 0.799349 29.8507 1.34128C30.3927 1.85612 30.6636 2.47935 30.6636 3.21096C30.6636 3.94257 30.3927 4.57935 29.8507 5.12128C29.3359 5.63612 28.7127 5.89354 27.981 5.89354Z" fill="#4DA747"/>
<path d="M47.0338 31.9064C45.0557 31.9064 43.2809 31.4187 41.7093 30.4432C40.1376 29.4406 38.8912 28.0993 37.9699 26.4193C37.0757 24.7122 36.6286 22.7884 36.6286 20.6477C36.6286 18.5071 37.1164 16.5832 38.0918 14.8761C39.0944 13.169 40.4357 11.8277 42.1157 10.8522C43.8228 9.84966 45.7331 9.34837 47.8467 9.34837C49.9602 9.34837 51.857 9.84966 53.537 10.8522C55.217 11.8277 56.5447 13.169 57.5202 14.8761C58.5228 16.5832 59.0241 18.5071 59.0241 20.6477V29.7116C59.0241 30.3077 58.8209 30.809 58.4144 31.2155C58.035 31.5948 57.5473 31.7845 56.9512 31.7845C56.355 31.7845 55.8538 31.5948 55.4473 31.2155C55.068 30.809 54.8783 30.3077 54.8783 29.7116V28.2077C53.9299 29.3458 52.7783 30.2535 51.4234 30.9309C50.0957 31.5813 48.6325 31.9064 47.0338 31.9064ZM47.8467 28.2484C49.2286 28.2484 50.4615 27.9232 51.5454 27.2729C52.6292 26.5955 53.4828 25.6877 54.106 24.5497C54.7292 23.3845 55.0409 22.0838 55.0409 20.6477C55.0409 19.1845 54.7292 17.8839 54.106 16.7458C53.4828 15.5806 52.6292 14.6729 51.5454 14.0226C50.4615 13.3451 49.2286 13.0064 47.8467 13.0064C46.4918 13.0064 45.2589 13.3451 44.148 14.0226C43.0641 14.6729 42.197 15.5806 41.5467 16.7458C40.9234 17.8839 40.6118 19.1845 40.6118 20.6477C40.6118 22.0838 40.9234 23.3845 41.5467 24.5497C42.197 25.6877 43.0641 26.5955 44.148 27.2729C45.2589 27.9232 46.4918 28.2484 47.8467 28.2484Z" fill="#4DA747"/>
<path d="M75.0339 31.7438C73.679 31.7438 72.4597 31.4051 71.3758 30.7277C70.2919 30.0232 69.4384 29.0748 68.8152 27.8826C68.192 26.6903 67.8803 25.349 67.8803 23.8587V13.8193H66.0107C65.4416 13.8193 64.981 13.6568 64.6287 13.3316C64.2765 13.0064 64.1003 12.6 64.1003 12.1122C64.1003 11.5703 64.2765 11.1368 64.6287 10.8116C64.981 10.4864 65.4416 10.3239 66.0107 10.3239H67.8803V4.47096C67.8803 3.87484 68.07 3.38709 68.4494 3.00774C68.8287 2.62839 69.3165 2.43871 69.9126 2.43871C70.5087 2.43871 70.9965 2.62839 71.3758 3.00774C71.7552 3.38709 71.9449 3.87484 71.9449 4.47096V10.3239H75.3997C75.9687 10.3239 76.4294 10.4864 76.7816 10.8116C77.1339 11.1368 77.31 11.5703 77.31 12.1122C77.31 12.6 77.1339 13.0064 76.7816 13.3316C76.4294 13.6568 75.9687 13.8193 75.3997 13.8193H71.9449V23.8587C71.9449 24.9426 72.2429 25.8503 72.839 26.5819C73.4352 27.3135 74.1668 27.6793 75.0339 27.6793H76.4158C76.9036 27.6793 77.31 27.869 77.6352 28.2484C77.9874 28.6277 78.1636 29.1155 78.1636 29.7116C78.1636 30.3077 77.9332 30.7955 77.4726 31.1748C77.039 31.5542 76.47 31.7438 75.7655 31.7438H75.0339Z" fill="black"/>
<path d="M92.5262 31.9064C90.5481 31.9064 88.7733 31.4187 87.2017 30.4432C85.6301 29.4406 84.3836 28.0993 83.4623 26.4193C82.5682 24.7122 82.1211 22.7884 82.1211 20.6477C82.1211 18.5071 82.6088 16.5832 83.5843 14.8761C84.5869 13.169 85.9282 11.8277 87.6081 10.8523C89.3152 9.84967 91.2256 9.34838 93.3391 9.34838C95.4527 9.34838 97.3494 9.84967 99.0294 10.8523C100.709 11.8277 102.037 13.169 103.013 14.8761C104.015 16.5832 104.517 18.5071 104.517 20.6477V29.7116C104.517 30.3077 104.313 30.809 103.907 31.2155C103.527 31.5948 103.04 31.7845 102.444 31.7845C101.847 31.7845 101.346 31.5948 100.94 31.2155C100.56 30.809 100.371 30.3077 100.371 29.7116V28.2077C99.4223 29.3458 98.2707 30.2535 96.9159 30.9309C95.5881 31.5813 94.1249 31.9064 92.5262 31.9064ZM93.3391 28.2484C94.721 28.2484 95.9539 27.9232 97.0378 27.2729C98.1217 26.5955 98.9752 25.6877 99.5985 24.5497C100.222 23.3845 100.533 22.0839 100.533 20.6477C100.533 19.1845 100.222 17.8839 99.5985 16.7458C98.9752 15.5806 98.1217 14.6729 97.0378 14.0226C95.9539 13.3451 94.721 13.0064 93.3391 13.0064C91.9843 13.0064 90.7514 13.3451 89.6404 14.0226C88.5565 14.6729 87.6894 15.5806 87.0391 16.7458C86.4159 17.8839 86.1043 19.1845 86.1043 20.6477C86.1043 22.0839 86.4159 23.3845 87.0391 24.5497C87.6894 25.6877 88.5565 26.5955 89.6404 27.2729C90.7514 27.9232 91.9843 28.2484 93.3391 28.2484Z" fill="black"/>
<path d="M118.775 31.9064C116.878 31.9064 115.117 31.6219 113.491 31.0529C111.892 30.4568 110.646 29.7116 109.752 28.8174C109.345 28.3838 109.169 27.8961 109.223 27.3542C109.305 26.7851 109.576 26.3245 110.036 25.9722C110.578 25.5387 111.107 25.3626 111.621 25.4439C112.163 25.498 112.624 25.7284 113.003 26.1348C113.464 26.6497 114.196 27.1374 115.198 27.598C116.228 28.0316 117.366 28.2484 118.612 28.2484C120.184 28.2484 121.376 27.9909 122.189 27.4761C123.029 26.9613 123.463 26.2974 123.49 25.4845C123.517 24.6716 123.124 23.9671 122.311 23.3709C121.525 22.7748 120.076 22.2871 117.962 21.9077C115.225 21.3658 113.234 20.5529 111.987 19.469C110.768 18.3851 110.158 17.0574 110.158 15.4858C110.158 14.1039 110.565 12.9658 111.378 12.0716C112.191 11.1503 113.234 10.4729 114.507 10.0393C115.781 9.5787 117.109 9.34838 118.491 9.34838C120.279 9.34838 121.864 9.6329 123.246 10.2019C124.628 10.771 125.725 11.5568 126.538 12.5593C126.918 12.9929 127.094 13.4535 127.067 13.9413C127.04 14.4019 126.809 14.7948 126.376 15.12C125.942 15.4181 125.427 15.5129 124.831 15.4045C124.235 15.2961 123.734 15.0522 123.327 14.6729C122.65 14.0226 121.918 13.5755 121.132 13.3316C120.347 13.0877 119.439 12.9658 118.409 12.9658C117.217 12.9658 116.201 13.169 115.361 13.5755C114.548 13.9819 114.141 14.5781 114.141 15.3639C114.141 15.8516 114.263 16.2987 114.507 16.7052C114.778 17.0845 115.293 17.4368 116.052 17.7619C116.811 18.06 117.921 18.3581 119.385 18.6561C122.447 19.2522 124.56 20.1058 125.725 21.2168C126.918 22.3006 127.514 23.6419 127.514 25.2406C127.514 26.4871 127.175 27.6116 126.498 28.6142C125.847 29.6167 124.872 30.4161 123.571 31.0122C122.298 31.6084 120.699 31.9064 118.775 31.9064Z" fill="black"/>
<path d="M134.747 31.7438C134.151 31.7438 133.663 31.5677 133.284 31.2155C132.932 30.8361 132.756 30.3484 132.756 29.7522V1.99161C132.756 1.39548 132.932 0.92129 133.284 0.569032C133.663 0.189677 134.151 0 134.747 0C135.343 0 135.818 0.189677 136.17 0.569032C136.549 0.92129 136.739 1.39548 136.739 1.99161V18.5342L146.616 9.71418C147.022 9.33483 147.469 9.1587 147.957 9.1858C148.472 9.2129 148.905 9.42967 149.258 9.83612C149.637 10.2426 149.813 10.6897 149.786 11.1774C149.759 11.6652 149.542 12.0987 149.136 12.4781L141.657 19.1439L149.542 28.8174C149.894 29.2509 150.043 29.7251 149.989 30.24C149.962 30.7277 149.718 31.1613 149.258 31.5406C148.824 31.8929 148.336 32.0419 147.794 31.9877C147.28 31.9606 146.846 31.7303 146.494 31.2968L138.771 21.7451L136.739 23.5335V29.7522C136.739 30.3484 136.549 30.8361 136.17 31.2155C135.818 31.5677 135.343 31.7438 134.747 31.7438Z" fill="black"/>
</svg>
